<svg width="58" height="55" viewBox="0 0 58 55" fill="none" xmlns="http://www.w3.org/2000/svg">
<rect width="57.9891" height="54.4388" rx="8" fill="#692E8A"/>
<path d="M35.7779 15.9018C36.0483 14.9321 36.1128 13.9219 35.9678 12.9287C35.8228 11.9356 35.4711 10.979 34.9328 10.1137C34.3945 9.2483 33.6801 8.49106 32.8303 7.88518C31.9806 7.2793 31.0123 6.83665 29.9806 6.5825C28.9488 6.32836 27.874 6.26769 26.8173 6.40397C25.7606 6.54025 24.7429 6.87081 23.8221 7.37677C22.9014 7.88272 22.0957 8.55418 21.4511 9.35279C20.8064 10.1514 20.3354 11.0615 20.065 12.0312L24.1703 13.0424C24.2994 12.5795 24.5243 12.1449 24.832 11.7636C25.1398 11.3823 25.5245 11.0617 25.9642 10.8201C26.4038 10.5785 26.8897 10.4207 27.3943 10.3556C27.8988 10.2906 28.412 10.3195 28.9046 10.4409C29.3972 10.5622 29.8596 10.7736 30.2653 11.0629C30.671 11.3521 31.0121 11.7137 31.2691 12.1269C31.5262 12.5401 31.6941 12.9968 31.7633 13.471C31.8326 13.9452 31.8018 14.4275 31.6726 14.8905L35.7779 15.9018Z" fill="#F5F5F5"/>
<path d="M19.9478 12.4821C19.6577 13.4458 19.5713 14.4541 19.6936 15.4495C19.8159 16.4449 20.1445 17.408 20.6606 18.2837C21.1767 19.1593 21.8703 19.9305 22.7016 20.5532C23.533 21.1758 24.4858 21.6377 25.5058 21.9125C26.5258 22.1873 27.593 22.2696 28.6464 22.1547C29.6998 22.0399 30.7188 21.73 31.6452 21.243C32.5716 20.7559 33.3872 20.1011 34.0456 19.316C34.704 18.5309 35.1922 17.6309 35.4823 16.6673L31.4237 15.5738C31.2851 16.0339 31.052 16.4637 30.7377 16.8385C30.4233 17.2134 30.0339 17.526 29.5916 17.7586C29.1492 17.9912 28.6627 18.1391 28.1597 18.1939C27.6568 18.2488 27.1472 18.2095 26.6602 18.0783C26.1732 17.9471 25.7182 17.7265 25.3213 17.4292C24.9244 17.1319 24.5932 16.7637 24.3468 16.3456C24.1004 15.9275 23.9435 15.4677 23.8851 14.9924C23.8267 14.5171 23.8679 14.0357 24.0064 13.5756L19.9478 12.4821Z" fill="#F5F5F5"/>
<rect x="24.0371" y="18.9448" width="8.4749" height="6.63772" fill="#F5F5F5"/>
<path d="M33.4795 24.89C31.1453 23.8044 28.5053 23.5687 26.0157 24.2234C23.5262 24.8781 21.3437 26.3822 19.8456 28.4756C18.3475 30.569 17.628 33.1201 17.8115 35.6877C17.995 38.2554 19.07 40.6782 20.8505 42.5372C22.6311 44.3963 25.0053 45.5748 27.5626 45.8688C30.12 46.1629 32.6997 45.5541 34.8557 44.1477C37.0118 42.7412 38.6086 40.6256 39.3701 38.1667C40.1316 35.7077 40.0099 33.0599 39.026 30.6811L34.0631 32.7338C34.5683 33.9554 34.6308 35.3151 34.2398 36.5779C33.8487 37.8407 33.0287 38.9272 31.9215 39.6494C30.8142 40.3717 29.4894 40.6843 28.1761 40.5333C26.8628 40.3823 25.6435 39.7771 24.7292 38.8224C23.8148 37.8677 23.2627 36.6235 23.1685 35.3049C23.0743 33.9863 23.4437 32.6762 24.2131 31.6011C24.9824 30.5261 26.1032 29.7537 27.3817 29.4174C28.6602 29.0812 30.016 29.2023 31.2147 29.7597L33.4795 24.89Z" fill="#F5F5F5"/>
</svg>
