<svg width="47" height="47" viewBox="0 0 47 47" fill="none" xmlns="http://www.w3.org/2000/svg">
<path d="M28.1628 17.6779C29.3622 17.2607 30.6235 17.0489 31.8934 17.0512C33.139 17.0487 34.3765 17.2525 35.5555 17.6544C39.9343 19.1525 43.0833 23.267 43.0833 28.108C43.0833 34.216 38.0739 39.1667 31.8934 39.1667H12.3101C7.6747 39.1667 3.91666 35.4537 3.91666 30.8731C3.91666 26.2906 7.6747 22.5796 12.3101 22.5796C13.968 22.5749 15.5904 23.0607 16.9729 23.9759" stroke="white" stroke-width="2.9375" stroke-linecap="round"/>
<path opacity="0.5" d="M13.9355 22.7343C13.4755 21.5056 13.2407 20.204 13.2423 18.8921C13.2423 12.784 18.2517 7.83334 24.4322 7.83334C30.1897 7.83334 34.9308 12.1299 35.5555 17.6544" stroke="white" stroke-width="2.9375" stroke-linecap="round"/>
</svg>
